# xmcd
#
# Track frame offsets:
#	182
#	10752
#	20930
#	31102
#	41910
#	50607
#	67080
#	88242
#	98267
#	107402
#	118187
#	127155
#	137915
#	149655
#	159065
#	173260
#
# Disc length: 2440 seconds
#
# Revision: 4
# Processed by: cddbd v1.5.2PL0 Copyright (c) Steve Scherf et al.
# Submitted via: audiograbber 1.83.01
#
DISCID=d9098610
DTITLE=The Everly Brothers - The Very Best Of
DYEAR=1900
DGENRE=
TTITLE0=Bye Bye Love
TTITLE1=Bird Dog
TTITLE2=Brand New Heartache
TTITLE3=Devoted To You
TTITLE4=Problems
TTITLE5=I'm Here To Get My Baby Out Of Jail
TTITLE6=Barbara Allen
TTITLE7=Claudette
TTITLE8=Wake Up Little Susie
TTITLE9=(Till) I Kissed You
TTITLE10=Since You Broke My Heart
TTITLE11=Long Time Gone
TTITLE12=Oh, So Many Years
TTITLE13=Poor Jenny
TTITLE14=Kentucky
TTITLE15=I Wonder If I Care As Much
EXTD=
EXTT0=
EXTT1=
EXTT2=
EXTT3=
EXTT4=
EXTT5=
EXTT6=
EXTT7=
EXTT8=
EXTT9=
EXTT10=
EXTT11=
EXTT12=
EXTT13=
EXTT14=
EXTT15=
PLAYORDER=
